<svg xmlns="http://www.w3.org/2000/svg" width="980" height="700" viewBox="0 0 980 700">
<rect x="0" y="0" width="100%" height="100%" fill="#f7f2e7"/>
<text x="490.0" y="46" text-anchor="middle" font-family="Georgia, serif" font-size="28" fill="#1f2e36">Hafnian Flux Phase-Transition Atlas</text>
<text x="490.0" y="74" text-anchor="middle" font-family="Courier New, monospace" font-size="13" fill="#4f5f69">Cell color = mean |uniform_phase_residual|</text>
<rect x="120.00" y="90.00" width="96.25" height="62.50" fill="#1c8083" stroke="#ffffff" stroke-width="1"/>
<rect x="216.25" y="90.00" width="96.25" height="62.50" fill="#1c8083" stroke="#ffffff" stroke-width="1"/>
<rect x="312.50" y="90.00" width="96.25" height="62.50" fill="#1c8083" stroke="#ffffff" stroke-width="1"/>
<rect x="408.75" y="90.00" width="96.25" height="62.50" fill="#1c8083" stroke="#ffffff" stroke-width="1"/>
<rect x="505.00" y="90.00" width="96.25" height="62.50" fill="#1c8083" stroke="#ffffff" stroke-width="1"/>
<rect x="601.25" y="90.00" width="96.25" height="62.50" fill="#1c8083" stroke="#ffffff" stroke-width="1"/>
<rect x="697.50" y="90.00" width="96.25" height="62.50" fill="#1c8083" stroke="#ffffff" stroke-width="1"/>
<rect x="793.75" y="90.00" width="96.25" height="62.50" fill="#1c8083" stroke="#ffffff" stroke-width="1"/>
<rect x="120.00" y="152.50" width="96.25" height="62.50" fill="#217e81" stroke="#ffffff" stroke-width="1"/>
<rect x="216.25" y="152.50" width="96.25" height="62.50" fill="#1f7f82" stroke="#ffffff" stroke-width="1"/>
<rect x="312.50" y="152.50" width="96.25" height="62.50" fill="#257d7f" stroke="#ffffff" stroke-width="1"/>
<rect x="408.75" y="152.50" width="96.25" height="62.50" fill="#217e81" stroke="#ffffff" stroke-width="1"/>
<rect x="505.00" y="152.50" width="96.25" height="62.50" fill="#237d80" stroke="#ffffff" stroke-width="1"/>
<rect x="601.25" y="152.50" width="96.25" height="62.50" fill="#247d7f" stroke="#ffffff" stroke-width="1"/>
<rect x="697.50" y="152.50" width="96.25" height="62.50" fill="#227e80" stroke="#ffffff" stroke-width="1"/>
<rect x="793.75" y="152.50" width="96.25" height="62.50" fill="#eee8dd" stroke="#ffffff" stroke-width="1"/>
<rect x="120.00" y="215.00" width="96.25" height="62.50" fill="#4b6e6c" stroke="#ffffff" stroke-width="1"/>
<rect x="216.25" y="215.00" width="96.25" height="62.50" fill="#2d7a7b" stroke="#ffffff" stroke-width="1"/>
<rect x="312.50" y="215.00" width="96.25" height="62.50" fill="#eee8dd" stroke="#ffffff" stroke-width="1"/>
<rect x="408.75" y="215.00" width="96.25" height="62.50" fill="#44706f" stroke="#ffffff" stroke-width="1"/>
<rect x="505.00" y="215.00" width="96.25" height="62.50" fill="#207f81" stroke="#ffffff" stroke-width="1"/>
<rect x="601.25" y="215.00" width="96.25" height="62.50" fill="#eee8dd" stroke="#ffffff" stroke-width="1"/>
<rect x="697.50" y="215.00" width="96.25" height="62.50" fill="#397575" stroke="#ffffff" stroke-width="1"/>
<rect x="793.75" y="215.00" width="96.25" height="62.50" fill="#eee8dd" stroke="#ffffff" stroke-width="1"/>
<rect x="120.00" y="277.50" width="96.25" height="62.50" fill="#4c6d6b" stroke="#ffffff" stroke-width="1"/>
<rect x="216.25" y="277.50" width="96.25" height="62.50" fill="#387575" stroke="#ffffff" stroke-width="1"/>
<rect x="312.50" y="277.50" width="96.25" height="62.50" fill="#805951" stroke="#ffffff" stroke-width="1"/>
<rect x="408.75" y="277.50" width="96.25" height="62.50" fill="#eee8dd" stroke="#ffffff" stroke-width="1"/>
<rect x="505.00" y="277.50" width="96.25" height="62.50" fill="#3d7373" stroke="#ffffff" stroke-width="1"/>
<rect x="601.25" y="277.50" width="96.25" height="62.50" fill="#2e797a" stroke="#ffffff" stroke-width="1"/>
<rect x="697.50" y="277.50" width="96.25" height="62.50" fill="#427170" stroke="#ffffff" stroke-width="1"/>
<rect x="793.75" y="277.50" width="96.25" height="62.50" fill="#eee8dd" stroke="#ffffff" stroke-width="1"/>
<rect x="120.00" y="340.00" width="96.25" height="62.50" fill="#86574e" stroke="#ffffff" stroke-width="1"/>
<rect x="216.25" y="340.00" width="96.25" height="62.50" fill="#b54436" stroke="#ffffff" stroke-width="1"/>
<rect x="312.50" y="340.00" width="96.25" height="62.50" fill="#eee8dd" stroke="#ffffff" stroke-width="1"/>
<rect x="408.75" y="340.00" width="96.25" height="62.50" fill="#a34b3f" stroke="#ffffff" stroke-width="1"/>
<rect x="505.00" y="340.00" width="96.25" height="62.50" fill="#8a554c" stroke="#ffffff" stroke-width="1"/>
<rect x="601.25" y="340.00" width="96.25" height="62.50" fill="#6d605a" stroke="#ffffff" stroke-width="1"/>
<rect x="697.50" y="340.00" width="96.25" height="62.50" fill="#d53726" stroke="#ffffff" stroke-width="1"/>
<rect x="793.75" y="340.00" width="96.25" height="62.50" fill="#cb3b2b" stroke="#ffffff" stroke-width="1"/>
<rect x="120.00" y="402.50" width="96.25" height="62.50" fill="#1c8184" stroke="#ffffff" stroke-width="1"/>
<rect x="216.25" y="402.50" width="96.25" height="62.50" fill="#da3624" stroke="#ffffff" stroke-width="1"/>
<rect x="312.50" y="402.50" width="96.25" height="62.50" fill="#eee8dd" stroke="#ffffff" stroke-width="1"/>
<rect x="408.75" y="402.50" width="96.25" height="62.50" fill="#eee8dd" stroke="#ffffff" stroke-width="1"/>
<rect x="505.00" y="402.50" width="96.25" height="62.50" fill="#eee8dd" stroke="#ffffff" stroke-width="1"/>
<rect x="601.25" y="402.50" width="96.25" height="62.50" fill="#eee8dd" stroke="#ffffff" stroke-width="1"/>
<rect x="697.50" y="402.50" width="96.25" height="62.50" fill="#eee8dd" stroke="#ffffff" stroke-width="1"/>
<rect x="793.75" y="402.50" width="96.25" height="62.50" fill="#eee8dd" stroke="#ffffff" stroke-width="1"/>
<rect x="120.00" y="465.00" width="96.25" height="62.50" fill="#eee8dd" stroke="#ffffff" stroke-width="1"/>
<rect x="216.25" y="465.00" width="96.25" height="62.50" fill="#eee8dd" stroke="#ffffff" stroke-width="1"/>
<rect x="312.50" y="465.00" width="96.25" height="62.50" fill="#eee8dd" stroke="#ffffff" stroke-width="1"/>
<rect x="408.75" y="465.00" width="96.25" height="62.50" fill="#eee8dd" stroke="#ffffff" stroke-width="1"/>
<rect x="505.00" y="465.00" width="96.25" height="62.50" fill="#ae4739" stroke="#ffffff" stroke-width="1"/>
<rect x="601.25" y="465.00" width="96.25" height="62.50" fill="#eee8dd" stroke="#ffffff" stroke-width="1"/>
<rect x="697.50" y="465.00" width="96.25" height="62.50" fill="#735e57" stroke="#ffffff" stroke-width="1"/>
<rect x="793.75" y="465.00" width="96.25" height="62.50" fill="#eee8dd" stroke="#ffffff" stroke-width="1"/>
<rect x="120.00" y="527.50" width="96.25" height="62.50" fill="#eee8dd" stroke="#ffffff" stroke-width="1"/>
<rect x="216.25" y="527.50" width="96.25" height="62.50" fill="#c73d2d" stroke="#ffffff" stroke-width="1"/>
<rect x="312.50" y="527.50" width="96.25" height="62.50" fill="#eee8dd" stroke="#ffffff" stroke-width="1"/>
<rect x="408.75" y="527.50" width="96.25" height="62.50" fill="#eee8dd" stroke="#ffffff" stroke-width="1"/>
<rect x="505.00" y="527.50" width="96.25" height="62.50" fill="#eee8dd" stroke="#ffffff" stroke-width="1"/>
<rect x="601.25" y="527.50" width="96.25" height="62.50" fill="#eee8dd" stroke="#ffffff" stroke-width="1"/>
<rect x="697.50" y="527.50" width="96.25" height="62.50" fill="#eee8dd" stroke="#ffffff" stroke-width="1"/>
<rect x="793.75" y="527.50" width="96.25" height="62.50" fill="#eee8dd" stroke="#ffffff" stroke-width="1"/>
<rect x="120" y="90" width="770" height="500" fill="none" stroke="#24343f" stroke-width="1.5"/>
<line x1="120.00" y1="590" x2="120.00" y2="598" stroke="#24343f"/>
<line x1="216.25" y1="590" x2="216.25" y2="598" stroke="#24343f"/>
<line x1="312.50" y1="590" x2="312.50" y2="598" stroke="#24343f"/>
<line x1="408.75" y1="590" x2="408.75" y2="598" stroke="#24343f"/>
<line x1="505.00" y1="590" x2="505.00" y2="598" stroke="#24343f"/>
<line x1="601.25" y1="590" x2="601.25" y2="598" stroke="#24343f"/>
<line x1="697.50" y1="590" x2="697.50" y2="598" stroke="#24343f"/>
<line x1="793.75" y1="590" x2="793.75" y2="598" stroke="#24343f"/>
<line x1="890.00" y1="590" x2="890.00" y2="598" stroke="#24343f"/>
<line x1="112" y1="90.00" x2="120" y2="90.00" stroke="#24343f"/>
<line x1="112" y1="152.50" x2="120" y2="152.50" stroke="#24343f"/>
<line x1="112" y1="215.00" x2="120" y2="215.00" stroke="#24343f"/>
<line x1="112" y1="277.50" x2="120" y2="277.50" stroke="#24343f"/>
<line x1="112" y1="340.00" x2="120" y2="340.00" stroke="#24343f"/>
<line x1="112" y1="402.50" x2="120" y2="402.50" stroke="#24343f"/>
<line x1="112" y1="465.00" x2="120" y2="465.00" stroke="#24343f"/>
<line x1="112" y1="527.50" x2="120" y2="527.50" stroke="#24343f"/>
<line x1="112" y1="590.00" x2="120" y2="590.00" stroke="#24343f"/>
<text x="505.00" y="660" text-anchor="middle" font-family="Georgia, serif" font-size="18" fill="#1f2e36">symmetry_gap_mean_abs</text>
<text x="34" y="340.00" text-anchor="middle" transform="rotate(-90 34 340.00)" font-family="Georgia, serif" font-size="18" fill="#1f2e36">coherence_magnitude</text>
<text x="120.00" y="632" text-anchor="middle" font-family="Courier New, monospace" font-size="12" fill="#4f5f69">0.000</text>
<text x="505.00" y="632" text-anchor="middle" font-family="Courier New, monospace" font-size="12" fill="#4f5f69">0.199</text>
<text x="890.00" y="632" text-anchor="middle" font-family="Courier New, monospace" font-size="12" fill="#4f5f69">0.398</text>
<text x="100.00" y="594.00" text-anchor="end" font-family="Courier New, monospace" font-size="12" fill="#4f5f69">0.052</text>
<text x="100.00" y="344.00" text-anchor="end" font-family="Courier New, monospace" font-size="12" fill="#4f5f69">0.526</text>
<text x="100.00" y="94.00" text-anchor="end" font-family="Courier New, monospace" font-size="12" fill="#4f5f69">1.000</text>
<rect x="914" y="90.00" width="22" height="7.25" fill="#da3624" stroke="none"/>
<rect x="914" y="96.33" width="22" height="7.25" fill="#d73625" stroke="none"/>
<rect x="914" y="102.66" width="22" height="7.25" fill="#d53726" stroke="none"/>
<rect x="914" y="108.99" width="22" height="7.25" fill="#d23827" stroke="none"/>
<rect x="914" y="115.32" width="22" height="7.25" fill="#d03928" stroke="none"/>
<rect x="914" y="121.65" width="22" height="7.25" fill="#cd3a2a" stroke="none"/>
<rect x="914" y="127.97" width="22" height="7.25" fill="#cb3b2b" stroke="none"/>
<rect x="914" y="134.30" width="22" height="7.25" fill="#c93c2c" stroke="none"/>
<rect x="914" y="140.63" width="22" height="7.25" fill="#c63d2d" stroke="none"/>
<rect x="914" y="146.96" width="22" height="7.25" fill="#c43e2e" stroke="none"/>
<rect x="914" y="153.29" width="22" height="7.25" fill="#c13f30" stroke="none"/>
<rect x="914" y="159.62" width="22" height="7.25" fill="#bf4031" stroke="none"/>
<rect x="914" y="165.95" width="22" height="7.25" fill="#bd4132" stroke="none"/>
<rect x="914" y="172.28" width="22" height="7.25" fill="#ba4233" stroke="none"/>
<rect x="914" y="178.61" width="22" height="7.25" fill="#b84335" stroke="none"/>
<rect x="914" y="184.94" width="22" height="7.25" fill="#b54436" stroke="none"/>
<rect x="914" y="191.27" width="22" height="7.25" fill="#b34537" stroke="none"/>
<rect x="914" y="197.59" width="22" height="7.25" fill="#b14638" stroke="none"/>
<rect x="914" y="203.92" width="22" height="7.25" fill="#ae4739" stroke="none"/>
<rect x="914" y="210.25" width="22" height="7.25" fill="#ac483b" stroke="none"/>
<rect x="914" y="216.58" width="22" height="7.25" fill="#a9483c" stroke="none"/>
<rect x="914" y="222.91" width="22" height="7.25" fill="#a7493d" stroke="none"/>
<rect x="914" y="229.24" width="22" height="7.25" fill="#a54a3e" stroke="none"/>
<rect x="914" y="235.57" width="22" height="7.25" fill="#a24b3f" stroke="none"/>
<rect x="914" y="241.90" width="22" height="7.25" fill="#a04c41" stroke="none"/>
<rect x="914" y="248.23" width="22" height="7.25" fill="#9d4d42" stroke="none"/>
<rect x="914" y="254.56" width="22" height="7.25" fill="#9b4e43" stroke="none"/>
<rect x="914" y="260.89" width="22" height="7.25" fill="#994f44" stroke="none"/>
<rect x="914" y="267.22" width="22" height="7.25" fill="#965046" stroke="none"/>
<rect x="914" y="273.54" width="22" height="7.25" fill="#945147" stroke="none"/>
<rect x="914" y="279.87" width="22" height="7.25" fill="#915248" stroke="none"/>
<rect x="914" y="286.20" width="22" height="7.25" fill="#8f5349" stroke="none"/>
<rect x="914" y="292.53" width="22" height="7.25" fill="#8d544a" stroke="none"/>
<rect x="914" y="298.86" width="22" height="7.25" fill="#8a554c" stroke="none"/>
<rect x="914" y="305.19" width="22" height="7.25" fill="#88564d" stroke="none"/>
<rect x="914" y="311.52" width="22" height="7.25" fill="#85574e" stroke="none"/>
<rect x="914" y="317.85" width="22" height="7.25" fill="#83584f" stroke="none"/>
<rect x="914" y="324.18" width="22" height="7.25" fill="#815950" stroke="none"/>
<rect x="914" y="330.51" width="22" height="7.25" fill="#7e5a52" stroke="none"/>
<rect x="914" y="336.84" width="22" height="7.25" fill="#7c5b53" stroke="none"/>
<rect x="914" y="343.16" width="22" height="7.25" fill="#795b54" stroke="none"/>
<rect x="914" y="349.49" width="22" height="7.25" fill="#775c55" stroke="none"/>
<rect x="914" y="355.82" width="22" height="7.25" fill="#745d57" stroke="none"/>
<rect x="914" y="362.15" width="22" height="7.25" fill="#725e58" stroke="none"/>
<rect x="914" y="368.48" width="22" height="7.25" fill="#705f59" stroke="none"/>
<rect x="914" y="374.81" width="22" height="7.25" fill="#6d605a" stroke="none"/>
<rect x="914" y="381.14" width="22" height="7.25" fill="#6b615b" stroke="none"/>
<rect x="914" y="387.47" width="22" height="7.25" fill="#68625d" stroke="none"/>
<rect x="914" y="393.80" width="22" height="7.25" fill="#66635e" stroke="none"/>
<rect x="914" y="400.13" width="22" height="7.25" fill="#64645f" stroke="none"/>
<rect x="914" y="406.46" width="22" height="7.25" fill="#616560" stroke="none"/>
<rect x="914" y="412.78" width="22" height="7.25" fill="#5f6661" stroke="none"/>
<rect x="914" y="419.11" width="22" height="7.25" fill="#5c6763" stroke="none"/>
<rect x="914" y="425.44" width="22" height="7.25" fill="#5a6864" stroke="none"/>
<rect x="914" y="431.77" width="22" height="7.25" fill="#586965" stroke="none"/>
<rect x="914" y="438.10" width="22" height="7.25" fill="#556a66" stroke="none"/>
<rect x="914" y="444.43" width="22" height="7.25" fill="#536b68" stroke="none"/>
<rect x="914" y="450.76" width="22" height="7.25" fill="#506c69" stroke="none"/>
<rect x="914" y="457.09" width="22" height="7.25" fill="#4e6d6a" stroke="none"/>
<rect x="914" y="463.42" width="22" height="7.25" fill="#4c6e6b" stroke="none"/>
<rect x="914" y="469.75" width="22" height="7.25" fill="#496e6c" stroke="none"/>
<rect x="914" y="476.08" width="22" height="7.25" fill="#476f6e" stroke="none"/>
<rect x="914" y="482.41" width="22" height="7.25" fill="#44706f" stroke="none"/>
<rect x="914" y="488.73" width="22" height="7.25" fill="#427170" stroke="none"/>
<rect x="914" y="495.06" width="22" height="7.25" fill="#407271" stroke="none"/>
<rect x="914" y="501.39" width="22" height="7.25" fill="#3d7372" stroke="none"/>
<rect x="914" y="507.72" width="22" height="7.25" fill="#3b7474" stroke="none"/>
<rect x="914" y="514.05" width="22" height="7.25" fill="#387575" stroke="none"/>
<rect x="914" y="520.38" width="22" height="7.25" fill="#367676" stroke="none"/>
<rect x="914" y="526.71" width="22" height="7.25" fill="#347777" stroke="none"/>
<rect x="914" y="533.04" width="22" height="7.25" fill="#317879" stroke="none"/>
<rect x="914" y="539.37" width="22" height="7.25" fill="#2f797a" stroke="none"/>
<rect x="914" y="545.70" width="22" height="7.25" fill="#2c7a7b" stroke="none"/>
<rect x="914" y="552.03" width="22" height="7.25" fill="#2a7b7c" stroke="none"/>
<rect x="914" y="558.35" width="22" height="7.25" fill="#287c7d" stroke="none"/>
<rect x="914" y="564.68" width="22" height="7.25" fill="#257d7f" stroke="none"/>
<rect x="914" y="571.01" width="22" height="7.25" fill="#237e80" stroke="none"/>
<rect x="914" y="577.34" width="22" height="7.25" fill="#207f81" stroke="none"/>
<rect x="914" y="583.67" width="22" height="7.25" fill="#1e8082" stroke="none"/>
<rect x="914" y="590.00" width="22" height="7.25" fill="#1c8184" stroke="none"/>
<rect x="914" y="90" width="22" height="500" fill="none" stroke="#24343f"/>
<text x="942" y="102" font-family="Courier New, monospace" font-size="12" fill="#4f5f69">1.977</text>
<text x="942" y="344.0" font-family="Courier New, monospace" font-size="12" fill="#4f5f69">0.989</text>
<text x="942" y="588" font-family="Courier New, monospace" font-size="12" fill="#4f5f69">0.001</text>
</svg>